<svg width="100" height="100" viewBox="0 0 100 100" fill="none" xmlns="http://www.w3.org/2000/svg">
<g clip-path="url(#clip0_53_2)">
<path d="M50 8.33325C26.9792 8.33325 8.33332 26.9791 8.33332 49.9999C8.32859 58.7469 11.0784 67.2733 16.1926 74.3694C21.3067 81.4655 28.5256 86.771 36.825 89.5333C38.9083 89.8958 39.6875 88.6457 39.6875 87.5499C39.6875 86.5624 39.6333 83.2832 39.6333 79.7916C29.1667 81.7207 26.4583 77.2416 25.625 74.8958C25.1542 73.6958 23.125 69.9999 21.3542 69.0083C19.8958 68.2291 17.8125 66.2999 21.3 66.2499C24.5833 66.1957 26.925 69.2707 27.7083 70.5207C31.4583 76.8207 37.45 75.0499 39.8417 73.9582C40.2083 71.2499 41.3 69.4291 42.5 68.3874C33.2292 67.3458 23.5417 63.7499 23.5417 47.8124C23.5417 43.2791 25.1542 39.5332 27.8125 36.6124C27.3958 35.5707 25.9375 31.2999 28.2292 25.5708C28.2292 25.5708 31.7167 24.4791 39.6875 29.8458C43.0794 28.9043 46.584 28.4305 50.1042 28.4374C53.6458 28.4374 57.1875 28.9041 60.5208 29.8416C68.4875 24.4249 71.9792 25.5749 71.9792 25.5749C74.2708 31.3041 72.8125 35.5749 72.3958 36.6166C75.05 39.5333 76.6667 43.2291 76.6667 47.8124C76.6667 63.8041 66.9292 67.3458 57.6583 68.3874C59.1667 69.6874 60.4708 72.1874 60.4708 76.0958C60.4708 81.6666 60.4167 86.1458 60.4167 87.5541C60.4167 88.6458 61.2 89.9457 63.2833 89.5291C71.5543 86.7366 78.7413 81.4207 83.8329 74.3297C88.9245 67.2387 91.6643 58.7296 91.6667 49.9999C91.6667 26.9791 73.0208 8.33325 50 8.33325Z" fill="#A20E0F"/>
</g>
<defs>
<clipPath id="clip0_53_2">
<rect width="100" height="100" fill="white"/>
</clipPath>
</defs>
</svg>
